<svg width="744" height="42" viewBox="0 0 744 42" fill="none" xmlns="http://www.w3.org/2000/svg">
<g clip-path="url(#clip0)">
<path fill-rule="evenodd" clip-rule="evenodd" d="M98.4757 25.1708H100.235C100.446 25.1708 100.587 24.9964 100.587 24.7347V1.27972C100.587 1.01814 100.446 0.84375 100.235 0.84375H98.4757C98.2645 0.84375 98.1238 1.01814 98.1238 1.27972V24.7347C98.1238 24.9964 98.2645 25.1708 98.4757 25.1708ZM94.5349 4.41874C94.5349 4.94189 94.3941 5.46505 94.0423 5.81383C93.7608 6.16261 93.3385 6.33699 92.9164 6.33699C92.4941 6.33699 92.0718 6.16261 91.7903 5.72663C91.5089 5.37787 91.2977 4.8547 91.2977 4.33154C91.2977 3.80838 91.4385 3.28521 91.7903 2.93645C92.0718 2.58768 92.4941 2.32609 92.9164 2.41329C93.3385 2.41329 93.7608 2.58768 94.0423 2.93645C94.3941 3.37241 94.5349 3.89558 94.5349 4.41874ZM93.8311 25.1708H92.0718C91.8608 25.1708 91.72 24.9964 91.72 24.7348V10.3479C91.72 10.0863 91.8608 9.91192 92.0718 9.91192H93.8311C94.0423 9.91192 94.1831 10.0863 94.1831 10.3479V24.7348C94.1831 24.9964 94.0423 25.1708 93.8311 25.1708ZM34.156 6.68569H24.7966C22.3336 6.68569 20.3632 9.12711 20.3632 12.0917V22.9908C20.3632 26.0426 22.3336 28.484 24.7966 28.484H34.156C36.619 28.484 38.5894 26.0426 38.5894 22.9908V12.1789C38.5894 9.12711 36.619 6.68569 34.156 6.68569ZM24.2336 22.2933C24.1633 23.1653 24.4447 24.0372 24.867 24.6476C25.4299 25.2579 26.0633 25.6067 26.8374 25.2579C27.8929 25.2579 28.8078 24.822 29.5115 23.8628C30.356 22.6421 31.0597 21.2471 31.4115 19.6776C31.3763 20.1571 31.3412 20.6148 31.306 21.0727L31.3059 21.0728C31.2708 21.5305 31.2356 21.9882 31.2004 22.4678C31.13 23.2525 31.4115 24.0372 31.8338 24.5604C32.3264 25.0835 33.03 25.4323 33.7338 25.3452C34.2967 25.3452 34.8597 25.1708 35.3523 24.822C35.9153 24.386 36.4783 23.7757 36.9005 23.0781C37.1116 22.8165 37.182 22.3806 37.182 21.9446C37.182 21.7702 37.1116 21.5086 37.0413 21.3342C37.0413 21.1598 36.9005 21.0727 36.7598 21.0727C36.619 21.0727 36.4079 21.1598 36.3375 21.3342C35.9857 21.8574 35.6338 22.2934 35.2116 22.7293C34.9302 22.991 34.5782 23.1653 34.2264 23.1653C33.9449 23.1653 33.6634 22.991 33.4523 22.7293C33.2412 22.4678 33.1708 22.0318 33.1708 21.5959C33.206 21.3342 33.2236 21.0727 33.2412 20.8111C33.2588 20.5495 33.2764 20.2879 33.3115 20.0264C33.4523 18.4569 33.6634 16.713 33.9449 14.7948C34.0336 14.1905 34.0944 13.6553 34.1447 13.2113C34.1743 12.9506 34.2004 12.7212 34.2264 12.5277C34.2264 12.3097 34.244 12.0917 34.2616 11.8738C34.2791 11.6558 34.2967 11.4378 34.2967 11.2198C34.2967 10.6966 34.2264 10.2607 34.0153 9.91191C33.8041 9.65032 33.5227 9.56313 33.2412 9.56313C32.9597 9.56313 32.6782 9.73752 32.4671 9.9991C32.3264 10.3479 32.1856 10.871 32.1856 11.307C31.9745 13.6612 31.6227 15.9283 30.9893 18.1081C30.6374 19.5032 30.0745 20.8111 29.3004 21.9446C28.8782 22.6422 28.1744 23.0781 27.4707 23.1653C27.1892 23.1653 26.9077 23.0781 26.6966 22.8166C26.4855 22.555 26.4151 22.2062 26.4151 21.8574C26.4151 21.7266 26.4327 21.5959 26.4503 21.465C26.4679 21.3342 26.4855 21.2035 26.4855 21.0727C26.5207 20.9418 26.5383 20.8111 26.5559 20.6803C26.5735 20.5495 26.5911 20.4188 26.6263 20.2879L26.6966 19.6776L27.2596 16.1898C27.3335 15.6861 27.4074 15.2546 27.4712 14.8825C27.5288 14.5462 27.5781 14.2584 27.6115 14.01C27.6818 13.3997 27.6818 12.8765 27.6818 12.2662V12.2661C27.7522 11.5686 27.5411 10.871 27.1892 10.2607C26.8374 9.82471 26.2744 9.56313 25.7818 9.56313C24.304 9.65032 22.9669 10.6095 22.1928 12.1789C21.9114 12.5277 21.7706 13.0509 21.7706 13.4868C21.7706 13.6612 21.841 13.8356 21.9114 13.9228C21.9817 14.0972 22.1225 14.1844 22.2632 14.1844C22.4743 14.1844 22.6854 14.01 22.7558 13.8356C23.1077 13.2253 23.5299 12.7021 24.0225 12.2661C24.304 12.0046 24.6559 11.743 25.0781 11.743C25.2892 11.743 25.4299 11.8302 25.5003 12.0045C25.515 12.0591 25.5297 12.1098 25.5437 12.1584L25.5437 12.1585L25.5437 12.1585C25.597 12.3427 25.641 12.4951 25.641 12.7021C25.641 13.2253 25.5707 13.7484 25.5003 14.1844C25.4651 14.4024 25.4299 14.5768 25.4036 14.7075C25.3772 14.8383 25.3596 14.9255 25.3596 14.9692L24.4447 20.2879C24.304 20.9854 24.2336 21.5959 24.2336 22.2933ZM47.8081 13.4868C47.6674 13.6612 47.4563 13.574 47.3155 13.3996C47.034 12.9637 46.7525 12.6149 46.4007 12.4405C45.9081 12.0917 45.2747 11.9173 44.7117 11.9173C44.4303 11.9173 44.1488 11.9173 43.8673 12.0045C43.5858 12.0917 43.3747 12.1789 43.1636 12.3533C42.9524 12.5277 42.8117 12.7021 42.6709 12.9637C42.5303 13.2253 42.4599 13.4868 42.4599 13.8356C42.4599 14.446 42.7414 14.969 43.1636 15.2307C43.8673 15.6666 44.5711 15.9282 45.2747 16.1026C45.8378 16.277 46.4007 16.4514 46.8933 16.7129C47.3859 16.8873 47.8081 17.2361 48.2304 17.5849C48.5822 17.9337 48.8637 18.3697 49.0748 18.8929C49.2859 19.4159 49.4266 20.0263 49.3563 20.6367C49.3563 21.4215 49.2156 22.2062 48.934 22.9037C48.6525 23.514 48.2304 24.0372 47.7378 24.4732C47.2451 24.9091 46.7525 25.1708 46.1896 25.3452C45.6266 25.5196 44.9932 25.6067 44.3599 25.6067C43.445 25.6067 42.4599 25.3452 41.6154 24.9091C40.8413 24.5604 40.1376 23.95 39.645 23.1652C39.5042 22.991 39.5042 22.7293 39.645 22.5549L40.8413 21.2471C40.9821 21.0727 41.1932 21.1598 41.3339 21.3342C41.6858 21.7702 42.0376 22.2062 42.4599 22.4678C43.0229 22.9037 43.7265 23.0781 44.3599 23.0781C44.6414 23.0781 44.9932 23.0781 45.2747 22.991C45.5563 22.9037 45.8378 22.8166 46.0488 22.6422C46.2599 22.4678 46.4711 22.2062 46.6118 21.9446C46.7525 21.5958 46.8229 21.2471 46.8229 20.8983C46.8229 20.2007 46.5414 19.5903 46.0488 19.3288C45.2747 18.8929 44.5006 18.5441 43.6562 18.3697C43.234 18.2824 42.8117 18.1081 42.3895 17.9337C41.9673 17.7593 41.6154 17.4977 41.2636 17.149C40.9117 16.8002 40.6303 16.4514 40.4191 15.9282C40.208 15.4051 40.0672 14.7948 40.0672 14.1843C40.0672 13.4868 40.208 12.7021 40.4895 12.0917C40.7709 11.4814 41.1228 11.0454 41.545 10.6094C41.9673 10.1735 42.5303 9.91189 43.0229 9.7375C43.5858 9.56311 44.1488 9.47592 44.7117 9.47592C45.5562 9.47592 46.4711 9.65031 47.2451 10.0863C47.8784 10.435 48.5118 10.9582 48.934 11.6558C49.0748 11.8301 49.0045 12.0917 48.8637 12.2661L47.8081 13.4868ZM63.5714 18.0209V17.4105C63.5714 16.277 63.501 15.2307 63.3602 14.1843C63.0787 13.2253 62.7269 12.3533 62.1639 11.6558C61.6009 10.9582 60.9676 10.435 60.2638 10.0863C58.6453 9.30154 56.886 9.30154 55.2675 10.0863C54.4934 10.435 53.7897 11.0454 53.2267 11.743C52.6637 12.4405 52.1711 13.3124 51.8896 14.2716C51.5378 15.3178 51.397 16.3642 51.397 17.4977C51.397 18.6312 51.5378 19.7647 51.8896 20.811C52.4526 22.7293 53.7193 24.2988 55.2675 24.9964C57.0971 25.8682 59.0675 25.7811 60.8268 24.822C61.6712 24.2988 62.375 23.6013 62.9379 22.7293C63.0084 22.5549 63.0084 22.2934 62.8676 22.119L61.6713 20.9854C61.5306 20.8983 61.3194 20.8983 61.1787 21.0727C60.8973 21.5958 60.475 22.0318 59.9824 22.3805C59.2786 22.9037 58.575 23.0781 57.8009 23.0781C56.7453 23.0781 55.7601 22.6422 54.986 21.7702C54.6341 21.3342 54.3526 20.811 54.1416 20.2879C53.9304 19.852 53.86 19.4159 53.7897 18.98H53.7896V18.8929C53.7896 18.6312 53.9304 18.4568 54.1416 18.4568H63.2194C63.4306 18.4568 63.5714 18.2824 63.5714 18.0209ZM61.0379 15.7539C61.0379 16.0154 60.8973 16.1898 60.6861 16.1898H54.1416H54.0711C53.86 16.1026 53.7896 15.9282 53.7896 15.6666C53.86 15.2307 54.0008 14.7948 54.1416 14.446C54.3526 13.9228 54.6341 13.3996 54.986 13.0509C55.3378 12.6149 55.7601 12.2661 56.1823 12.0917C56.6749 11.8301 57.1675 11.743 57.6601 11.743C58.1527 11.743 58.6453 11.9173 59.1379 12.0917C59.912 12.5277 60.5453 13.3996 60.8268 14.446C60.862 14.6639 60.8972 14.8601 60.9324 15.0563C60.9676 15.2525 61.0027 15.4487 61.0379 15.6666V15.7539ZM66.5269 11.6557C66.5269 11.2198 66.5269 10.7838 66.4566 10.435C66.4566 10.1734 66.5973 9.99904 66.8084 9.99904H68.4269C68.6381 9.99904 68.7789 10.1734 68.7789 10.3478C68.7789 10.4692 68.794 10.6094 68.8103 10.7596V10.7596C68.829 10.9331 68.8492 11.12 68.8492 11.3069V12.5277H68.9196C69.2715 11.6557 69.7641 10.871 70.4677 10.3478C71.1011 9.82465 71.9456 9.47589 72.7197 9.56307C72.9308 9.56307 73.1419 9.56307 73.353 9.65026C73.4938 9.65026 73.6345 9.82465 73.6345 10.0862L73.5641 12.0045C73.5641 12.2661 73.4234 12.4405 73.2123 12.4405C73.0011 12.3533 72.7197 12.3533 72.5085 12.3533C72.0159 12.3533 71.453 12.4405 70.9603 12.7892C70.5382 13.0508 70.1863 13.3996 69.9048 13.8355C69.6233 14.2716 69.4122 14.7946 69.2715 15.405C69.1307 16.0154 69.0603 16.6258 69.0603 17.2361V24.822C69.0603 25.0835 68.9196 25.2579 68.7085 25.2579H66.9492C66.7381 25.2579 66.5973 25.0835 66.5973 24.822V13.2252C66.5973 12.7892 66.5973 12.2661 66.5269 11.6557ZM75.9567 32.8438H77.716C77.9272 32.8438 78.068 32.6694 78.068 32.4078V22.8166H78.1383C78.5605 23.6884 79.1939 24.386 79.968 24.822C80.7421 25.2579 81.5865 25.5196 82.4309 25.5196C83.3458 25.5196 84.1902 25.3452 85.0347 24.9091C85.8088 24.4732 86.4422 23.95 87.0051 23.1652C87.5681 22.3805 87.9903 21.5086 88.2718 20.5495C88.5533 19.5903 88.694 18.4568 88.694 17.4105C88.694 16.3642 88.5533 15.3178 88.2718 14.3587C87.9903 13.4868 87.5681 12.6149 87.0051 11.8301C86.4422 11.1326 85.7384 10.5222 85.0347 10.0863C84.1902 9.65031 83.3458 9.47592 82.5014 9.47592C81.5865 9.47592 80.6717 9.7375 79.8272 10.2607C79.1235 10.6966 78.4901 11.3942 78.068 12.2661H77.9975V10.3478C77.9975 10.0863 77.8568 9.91189 77.6457 9.91189H75.9567C75.7457 9.91189 75.6049 10.0863 75.6049 10.3478V32.4078C75.6049 32.6694 75.7457 32.8438 75.9567 32.8438ZM85.8792 15.4051C86.0902 16.1026 86.1607 16.8002 86.1607 17.4977C86.1607 18.1953 86.0902 18.8929 85.8792 19.5903C85.7384 20.2007 85.4569 20.811 85.1051 21.3342C84.7532 21.8574 84.331 22.2934 83.8384 22.5549C83.2755 22.8166 82.7124 22.991 82.0791 22.991C81.5161 22.991 80.9532 22.8166 80.3902 22.5549C79.8976 22.2934 79.405 21.8574 79.0531 21.3342C78.7013 20.811 78.4198 20.2007 78.2086 19.5903C77.7864 18.1953 77.7864 16.7129 78.2086 15.4051C78.4198 14.7948 78.7013 14.1843 79.0531 13.6612C79.4753 13.138 79.8976 12.7021 80.3902 12.4405C80.8827 12.1789 81.5161 12.0045 82.0791 12.0045C82.642 12.0045 83.2755 12.0917 83.8384 12.4405C84.331 12.7021 84.7532 13.138 85.1051 13.6612C85.4569 14.1843 85.7384 14.7948 85.8792 15.4051ZM116.913 17.4977C116.913 18.6312 116.772 19.6776 116.421 20.7239C116.069 21.683 115.646 22.5549 115.013 23.2525C114.38 23.95 113.676 24.5604 112.902 24.9091C111.213 25.6938 109.313 25.6938 107.694 24.9091C106.076 24.2116 104.809 22.6422 104.176 20.6367C103.824 19.5903 103.683 18.5441 103.683 17.4105C103.683 16.277 103.824 15.2307 104.176 14.1843C104.528 13.2253 104.95 12.3533 105.583 11.6558C106.217 10.9582 106.92 10.3479 107.694 9.99909C109.383 9.21435 111.213 9.21435 112.902 9.99909C113.676 10.3479 114.38 10.9582 115.013 11.6558C115.646 12.3533 116.069 13.2253 116.421 14.1843C116.702 15.3178 116.913 16.3642 116.913 17.4977ZM114.38 17.4977C114.38 16.8002 114.309 16.1026 114.098 15.4051C113.957 14.7948 113.676 14.1843 113.324 13.6612C112.972 13.138 112.55 12.7021 112.057 12.4405C110.931 11.8301 109.665 11.8301 108.539 12.4405C108.046 12.7021 107.624 13.138 107.272 13.6612C106.92 14.1843 106.639 14.7948 106.498 15.4051C106.146 16.8002 106.146 18.1953 106.498 19.5903V19.5905C106.709 20.2008 106.92 20.8111 107.272 21.3342C107.624 21.8574 108.046 22.2934 108.539 22.5549C109.665 23.1652 110.931 23.1652 112.057 22.5549C112.55 22.2934 112.972 21.8574 113.324 21.3342C113.676 20.811 113.957 20.2007 114.098 19.5903V19.5902C114.239 18.8927 114.38 18.1953 114.38 17.4977ZM122.965 12.3533H125.569C125.78 12.3533 125.921 12.1789 125.991 11.8301V10.1734C125.991 9.91187 125.85 9.73749 125.639 9.73749H123.035C122.825 9.73749 122.684 9.5631 122.684 9.30152V5.81378C122.684 5.55221 122.542 5.37782 122.332 5.37782H120.573C120.361 5.37782 120.22 5.55221 120.22 5.81378V9.30152C120.22 9.5631 120.08 9.73749 119.868 9.73749H118.18C117.969 9.73749 117.828 9.91187 117.828 10.1734V11.8301C117.828 12.0917 117.969 12.2661 118.18 12.2661H119.868C120.08 12.2661 120.22 12.4405 120.22 12.7021V20.5495C120.151 21.8574 120.432 23.1652 121.135 24.1244C121.839 24.9964 122.825 25.4323 123.81 25.3452C124.232 25.3452 124.584 25.345 124.935 25.2579C125.147 25.2579 125.428 25.1708 125.639 25.0835C125.78 24.9964 125.85 24.822 125.85 24.6476L125.78 23.0781V22.9908C125.709 22.8165 125.569 22.6422 125.358 22.7293L125.076 22.8166C124.865 22.9037 124.584 22.9037 124.372 22.9037C123.879 22.9037 123.387 22.7293 123.035 22.2933C122.684 21.683 122.542 20.9854 122.613 20.2879V12.7893C122.613 12.5277 122.754 12.3533 122.965 12.3533Z" fill="#655B6E"/>
</g>
<g clip-path="url(#clip1)">
<path fill-rule="evenodd" clip-rule="evenodd" d="M195.217 19.4687C195.189 19.4342 195.156 19.4067 195.119 19.3885C195.082 19.3702 195.043 19.3614 195.003 19.3625C194.964 19.3638 194.925 19.3748 194.889 19.3953C194.853 19.4157 194.82 19.4449 194.794 19.4812L194.774 19.5063C194.25 20.2804 193.534 20.8047 192.739 20.9921H192.718C192.472 21.0423 192.223 21.0674 191.973 21.067H191.912C191.832 21.067 191.741 21.067 191.66 21.0545C190.532 20.9921 189.615 20.4676 188.89 19.4812C188.85 19.4314 188.809 19.3689 188.779 19.319C188.104 18.3202 187.761 17.1213 187.741 15.6856V15.3359C187.812 14.1997 188.164 13.1133 188.759 12.2392C188.779 12.2143 188.797 12.1861 188.814 12.158C188.832 12.13 188.85 12.1019 188.87 12.077C189.585 11.0906 190.512 10.5663 191.64 10.5038C191.681 10.5038 191.723 10.5006 191.766 10.4975L191.766 10.4975C191.809 10.4944 191.852 10.4913 191.892 10.4913H191.953C192.205 10.4913 192.446 10.5162 192.698 10.5663H192.718C193.514 10.7535 194.23 11.2779 194.753 12.0521L194.814 12.152C194.925 12.3143 195.116 12.3268 195.237 12.2019L195.247 12.1894L195.368 12.0395L195.68 11.665L196.97 10.1292L196.98 10.1168C197.101 9.97932 197.101 9.74211 196.99 9.59233L196.95 9.5424C196.799 9.34256 196.648 9.15528 196.486 8.98046L196.476 8.96802C196.244 8.71849 195.999 8.48907 195.741 8.28133L195.68 8.23127C194.955 7.64444 194.149 7.21997 193.293 6.99522C192.759 6.88267 192.225 6.8204 191.681 6.8204C190.774 6.88278 189.877 7.13256 189.041 7.5696C188.577 7.81925 188.134 8.11896 187.711 8.48104C187.419 8.73081 187.137 9.00549 186.875 9.30507C185.404 10.9783 184.668 13.1508 184.668 15.8104C184.668 18.47 185.374 20.6298 186.784 22.2782C187.076 22.6152 187.389 22.9273 187.711 23.2145C188.426 23.8263 189.222 24.2633 190.079 24.5133H190.089C190.663 24.6754 191.248 24.7503 191.832 24.7503C191.973 24.7503 192.114 24.7503 192.245 24.7379C192.295 24.7379 192.336 24.7379 192.386 24.7253L192.477 24.713L192.557 24.7005L192.698 24.6879L192.789 24.6755H192.819L192.88 24.663L192.97 24.6505L193.051 24.6381L193.152 24.6254H193.222L193.263 24.6129H193.323C194.169 24.3882 194.975 23.9636 195.711 23.3768L195.771 23.3269C196.023 23.1148 196.275 22.8899 196.507 22.6403L196.517 22.6277C196.678 22.453 196.829 22.2657 196.98 22.0658C197.071 21.9409 197.071 21.7412 196.97 21.6286L196.96 21.6163L195.217 19.4687ZM203.925 15.1529V24.3651C203.925 24.5762 203.794 24.738 203.623 24.738H201.206C201.035 24.738 200.904 24.5762 200.904 24.3651V1.21679C200.904 1.00524 201.035 0.84375 201.206 0.84375H203.623C203.794 0.84375 203.925 1.00537 203.925 1.21667V9.18555C205.355 7.12185 206.795 6.87333 207.781 6.87333C209.402 6.87333 210.862 7.28348 212.01 8.50184C213.078 9.63317 214.115 11.5849 214.115 13.8973V24.3774C214.115 24.5887 213.984 24.7503 213.813 24.7503H211.396C211.225 24.7503 211.094 24.5887 211.094 24.3774V15.0285C211.094 11.7713 209.704 10.5406 207.509 10.5406C206.462 10.5406 205.667 10.8763 204.922 11.759C204.217 12.592 203.925 13.5119 203.925 15.1529H203.925ZM242.855 10.1168C242.855 10.329 242.725 10.4913 242.554 10.4913C241.137 10.5287 240.063 11.1281 239.33 12.2893C238.576 13.5005 238.204 15.1112 238.204 17.1338V24.3758C238.204 24.588 238.074 24.7503 237.903 24.7503H235.492C235.322 24.7503 235.191 24.588 235.191 24.3758V7.19494C235.191 6.98278 235.322 6.8204 235.492 6.8204H237.903C238.074 6.8204 238.204 6.98278 238.204 7.19494V9.14283C239.34 7.18249 241.439 6.88291 242.524 6.83285C242.564 6.8294 242.604 6.83622 242.642 6.85289C242.68 6.86957 242.714 6.89574 242.744 6.92974C242.773 6.96376 242.796 7.00488 242.812 7.05051C242.828 7.09616 242.836 7.14533 242.835 7.19494V7.20739C242.845 7.90667 242.855 9.40507 242.855 10.1168ZM265.343 24.7503H262.923C262.752 24.7503 262.621 24.5881 262.621 24.3763V7.20689C262.621 6.99496 262.752 6.83285 262.913 6.8204H265.343C265.515 6.8204 265.646 6.98252 265.646 7.19445V24.3636C265.646 24.5758 265.515 24.7503 265.343 24.7503ZM293.478 6.84531C293.65 6.84531 293.781 7.00705 293.781 7.21847V23.377C293.772 23.713 293.762 24.0489 293.741 24.3721C293.736 24.4094 293.733 24.4436 293.731 24.478C293.728 24.5122 293.726 24.5464 293.72 24.5837C293.69 24.9197 293.66 25.2429 293.61 25.5665C293.599 25.6161 293.59 25.666 293.59 25.7159L293.586 25.7438C293.577 25.8116 293.567 25.8866 293.549 25.9521L293.538 26.0142C293.529 26.0889 293.519 26.1512 293.498 26.2257C293.287 27.4199 292.863 28.5518 292.277 29.5346C292.257 29.5657 292.239 29.5937 292.221 29.6217C292.21 29.6394 292.198 29.6573 292.186 29.6759C292.179 29.6866 292.172 29.6974 292.165 29.7089C292.095 29.8207 292.024 29.9327 291.943 30.0322L291.924 30.057C291.882 30.1069 291.843 30.1565 291.813 30.2065C291.793 30.2391 291.764 30.2717 291.735 30.3043C291.72 30.3214 291.706 30.3385 291.692 30.3555C291.682 30.3671 291.672 30.3786 291.662 30.3902C291.651 30.4022 291.64 30.4142 291.629 30.4263C291.605 30.4525 291.581 30.4787 291.56 30.5049C291.541 30.5287 291.519 30.5524 291.497 30.5762C291.473 30.6022 291.449 30.6281 291.428 30.654C291.389 30.7039 291.337 30.7537 291.297 30.791C291.278 30.8088 291.257 30.8324 291.235 30.8562C291.211 30.8822 291.187 30.9085 291.165 30.9279C291.075 31.015 290.983 31.102 290.883 31.1891L290.741 31.3134L290.641 31.4004C290.317 31.6618 289.974 31.8733 289.621 32.0599L289.499 32.122C289.378 32.1843 289.257 32.234 289.136 32.2838L288.985 32.3459L288.924 32.3709L288.864 32.3955L288.752 32.433C288.718 32.4452 288.685 32.4545 288.653 32.4637C288.619 32.4732 288.586 32.4826 288.55 32.4952L288.5 32.5078C288.46 32.5146 288.425 32.5254 288.389 32.5357C288.362 32.5439 288.334 32.5519 288.307 32.5575L288.28 32.5631C288.226 32.574 288.165 32.586 288.107 32.6071L288.015 32.6196L287.843 32.6444C287.813 32.6506 287.783 32.6538 287.752 32.6569C287.722 32.66 287.691 32.6631 287.662 32.6692L287.561 32.6818L287.44 32.6942C287.399 32.7005 287.357 32.7036 287.313 32.7066C287.27 32.7098 287.228 32.7129 287.187 32.7192H286.702C285.107 32.7192 283.702 32.234 282.491 31.2761C282.475 31.2618 282.456 31.2476 282.438 31.233C282.391 31.1967 282.342 31.1587 282.3 31.1144C282.269 31.0894 282.239 31.0647 282.208 31.0274C282.184 30.9985 282.168 30.9844 282.147 30.9681C282.141 30.9633 282.135 30.9582 282.128 30.9526C282.112 30.9401 282.1 30.9277 282.087 30.9153V30.9151C282.074 30.9028 282.062 30.8904 282.046 30.8781L282.036 30.8655C281.976 30.8158 281.915 30.7537 281.865 30.6915C281.84 30.6604 281.812 30.6323 281.784 30.6041C281.756 30.5762 281.729 30.5482 281.704 30.5174C281.688 30.4986 281.673 30.4831 281.658 30.4675C281.643 30.452 281.627 30.4364 281.612 30.4178C281.598 30.4002 281.58 30.3799 281.56 30.3581C281.537 30.3336 281.513 30.3073 281.492 30.2809L281.309 30.0572C281.249 29.9825 281.189 29.9078 281.138 29.8207C281.104 29.7629 281.071 29.716 281.037 29.6692C281.026 29.6537 281.015 29.6382 281.004 29.6222C280.998 29.614 280.993 29.6055 280.987 29.5969C280.937 29.5231 280.877 29.4254 280.818 29.3274L280.815 29.3231C280.771 29.2515 280.738 29.1927 280.703 29.1329L280.663 29.0618L280.662 29.0602C280.612 28.9737 280.562 28.8873 280.523 28.8007C280.505 28.7626 280.485 28.7223 280.465 28.6817C280.439 28.6291 280.413 28.5761 280.391 28.5271C280.351 28.4275 280.309 28.3405 280.259 28.241C280.209 28.1414 280.178 28.0543 280.148 27.9672C280.148 27.9633 280.148 27.9606 280.148 27.9588C280.148 27.9577 280.147 27.957 280.147 27.9565C280.146 27.9549 280.143 27.9549 280.138 27.9549L280.137 27.953C280.098 27.854 280.058 27.7551 280.027 27.6563C279.997 27.5566 279.956 27.4449 279.916 27.3452C279.907 27.3145 279.904 27.2813 279.907 27.2489C279.911 27.2163 279.921 27.1854 279.936 27.1587C279.936 27.153 279.938 27.15 279.941 27.147C279.942 27.1454 279.943 27.1438 279.944 27.1418C279.946 27.1398 279.946 27.1373 279.946 27.1338L279.966 27.1089C279.971 27.1026 279.979 27.0964 279.986 27.0903C279.994 27.084 280.001 27.0778 280.006 27.0716L282.38 25.7903C282.431 25.7655 282.482 25.7655 282.521 25.8028L282.542 25.8276C282.552 25.8402 282.561 25.8526 282.561 25.8649C282.567 25.8712 282.569 25.8775 282.572 25.8836C282.574 25.8899 282.577 25.8962 282.582 25.9023C282.592 25.9398 282.605 25.974 282.618 26.0082V26.0083C282.63 26.0424 282.642 26.0766 282.652 26.1138C282.665 26.159 282.681 26.1996 282.696 26.2383C282.706 26.2637 282.716 26.2882 282.724 26.3127C282.743 26.375 282.764 26.4249 282.794 26.4871L282.814 26.5368C282.824 26.5679 282.837 26.5959 282.849 26.6239C282.862 26.6519 282.875 26.6798 282.885 26.7108C282.909 26.7596 282.93 26.8082 282.952 26.8562V26.8563C282.986 26.9309 283.02 27.0035 283.057 27.0717C283.072 27.0967 283.084 27.1215 283.097 27.1464C283.109 27.1713 283.122 27.196 283.138 27.2209C283.199 27.3329 283.269 27.4573 283.35 27.5567C283.365 27.5817 283.382 27.6068 283.4 27.6318C283.418 27.6566 283.436 27.6814 283.451 27.706C283.481 27.7559 283.521 27.8056 283.562 27.8429C283.632 27.9396 283.71 28.0271 283.794 28.1042L283.915 28.2286L284.036 28.3405L284.157 28.4525C284.198 28.4898 284.259 28.5396 284.319 28.5768C284.346 28.5993 284.382 28.6217 284.418 28.6442L284.429 28.6515C284.441 28.6588 284.454 28.6671 284.468 28.676C284.5 28.6972 284.536 28.7209 284.571 28.7385C284.597 28.7511 284.619 28.7666 284.642 28.7822C284.665 28.7978 284.688 28.8134 284.713 28.8258C284.733 28.8359 284.751 28.8461 284.767 28.8554C284.79 28.8689 284.81 28.8806 284.834 28.8878L284.904 28.9251C285.046 28.9997 285.197 29.0494 285.349 29.0993L285.47 29.1366C285.692 29.1988 285.924 29.2486 286.157 29.2734C286.172 29.2734 286.186 29.2742 286.201 29.2753C286.216 29.2764 286.232 29.278 286.247 29.2797C286.278 29.2828 286.308 29.2858 286.339 29.2858C286.368 29.2858 286.399 29.289 286.429 29.2921C286.449 29.2941 286.469 29.2962 286.489 29.2973C286.5 29.298 286.509 29.2984 286.52 29.2984H286.702C289.318 29.2984 290.662 27.2457 290.731 23.1407V22.3571C289.284 25.3713 285.844 24.681 285.193 24.5506C285.169 24.5458 285.149 24.5417 285.133 24.5386C285.123 24.5367 285.114 24.5351 285.107 24.534C282.087 23.7254 279.824 20.6156 279.503 16.8216C279.503 16.8029 279.5 16.7811 279.497 16.7594V16.7592C279.495 16.7375 279.492 16.7158 279.492 16.697C279.472 16.391 279.461 16.0839 279.461 15.7767V7.19357C279.461 6.98215 279.593 6.8204 279.764 6.8204H282.188C282.36 6.8204 282.491 6.98215 282.491 7.19357V14.881C282.482 15.0305 282.482 15.4658 282.491 15.8762C282.5 16.1748 282.511 16.4486 282.531 16.5976C282.663 17.6426 283.027 18.6254 283.571 19.4215C284.308 20.5038 285.299 21.051 286.541 21.051C286.632 21.051 286.712 21.051 286.793 21.0386C287.925 20.9763 288.843 20.454 289.57 19.4713C289.611 19.4214 289.651 19.3593 289.681 19.3096C290.359 18.3268 290.701 17.1202 290.722 15.6898V7.19357C290.722 6.98215 290.852 6.8204 291.025 6.8204L293.478 6.84531ZM272.81 6.90134V9.17745H276.293C276.465 9.17745 276.596 9.3392 276.596 9.55061V11.802C276.596 12.0135 276.465 12.1751 276.293 12.1751H272.81V24.3772C272.81 24.5886 272.678 24.7503 272.507 24.7503H270.083C269.912 24.7503 269.78 24.5886 269.78 24.3772V7.0007C269.78 5.09763 270.266 3.60509 271.224 2.52294C272.184 1.45324 273.294 0.881104 274.789 0.84375H277.242C277.414 0.84375 277.546 1.01794 277.546 1.21692C277.546 1.27917 277.535 1.34131 277.505 1.40344L276.203 4.18968C276.152 4.30174 276.051 4.37621 275.939 4.37621H275.051C273.556 4.37621 272.81 5.22203 272.81 6.90134ZM251.332 21.2141C251.081 21.2141 250.839 21.1893 250.598 21.1395H250.578C249.784 20.9527 249.071 20.4297 248.548 19.6578C247.815 18.5994 247.453 17.3418 247.453 15.885C247.443 14.5402 247.815 13.2204 248.518 12.1869C249.061 11.4025 249.794 10.8671 250.618 10.6803C250.86 10.6305 251.111 10.6056 251.362 10.6181H251.673C252.739 10.6679 253.734 11.2655 254.437 12.2492C254.477 12.299 254.517 12.3613 254.547 12.4111C255.14 13.2826 255.492 14.366 255.562 15.499V15.8601C255.542 17.292 255.19 18.4998 254.527 19.4835C254.507 19.5085 254.489 19.5367 254.472 19.5649C254.454 19.5927 254.437 19.6205 254.417 19.6452C253.703 20.629 252.779 21.1519 251.653 21.2141H251.332ZM255.552 7.31846V9.26087C254.09 6.29549 250.689 6.98892 250.065 7.11608C250.029 7.12348 250.002 7.12896 249.985 7.13169C249.138 7.35692 248.331 7.77037 247.604 8.35192L247.544 8.40172C247.292 8.6134 247.041 8.83752 246.81 9.08656L246.79 9.099C246.629 9.27333 246.478 9.4601 246.328 9.65932C245.433 10.8547 244.84 12.3488 244.619 13.9676C244.519 14.6285 244.469 15.2996 244.469 15.9722C244.469 18.4126 245.082 20.4671 246.297 22.1107C246.448 22.3098 246.599 22.4967 246.76 22.671L246.78 22.6835C247.011 22.9324 247.252 23.1566 247.513 23.3682L247.574 23.4182C248.297 24.0157 249.101 24.4266 249.955 24.6632C249.973 24.666 250.002 24.6719 250.041 24.6798C250.688 24.8106 254.103 25.5011 255.552 22.4842V23.2687C255.542 24.2398 255.432 25.2113 255.201 26.145L255.14 26.369V26.3815C254.557 28.4111 253.362 29.4196 251.533 29.4196H251.352C251.292 29.4196 251.231 29.4196 251.171 29.4072C251.111 29.3946 251.05 29.3946 250.99 29.3946C250.759 29.3699 250.528 29.3201 250.307 29.2579L250.186 29.2205C250.036 29.1705 249.885 29.1084 249.744 29.0461L249.674 29.0089C249.654 28.9962 249.633 28.9868 249.613 28.9773C249.593 28.9681 249.573 28.9588 249.553 28.9465C249.541 28.9386 249.527 28.9309 249.513 28.9226C249.481 28.9047 249.447 28.885 249.412 28.8594C249.368 28.8254 249.321 28.7962 249.272 28.7721C249.242 28.7574 249.223 28.7425 249.204 28.7277C249.191 28.7176 249.178 28.7076 249.161 28.6975L249.154 28.6921C249.106 28.6564 249.058 28.6204 249.001 28.5731C248.961 28.5399 248.938 28.5178 248.916 28.4958C248.905 28.4846 248.894 28.4734 248.88 28.4609L248.759 28.3489L248.757 28.3469V28.3468C248.718 28.3101 248.678 28.2732 248.639 28.2243C248.598 28.1804 248.56 28.1363 248.522 28.0922C248.485 28.0492 248.447 28.006 248.408 27.9628C248.393 27.9377 248.375 27.9158 248.357 27.8938C248.34 27.8722 248.322 27.8506 248.307 27.8259C248.268 27.7767 248.238 27.7276 248.208 27.6783L248.207 27.6764L247.996 27.3402C247.981 27.3154 247.968 27.2905 247.956 27.2655L247.955 27.2653C247.943 27.2406 247.93 27.2157 247.915 27.1908C247.852 27.075 247.795 26.9544 247.744 26.8298C247.734 26.799 247.722 26.771 247.709 26.7431C247.697 26.7149 247.684 26.6867 247.674 26.6553L247.654 26.6056C247.644 26.5747 247.632 26.5469 247.619 26.5191H247.619C247.606 26.4909 247.594 26.4627 247.584 26.4313C247.574 26.4002 247.561 26.366 247.549 26.3318C247.536 26.2974 247.523 26.2632 247.513 26.2321C247.506 26.2095 247.498 26.1855 247.489 26.1604L247.489 26.1602V26.1601C247.473 26.1156 247.456 26.068 247.443 26.0205C247.443 26.0081 247.433 25.9955 247.423 25.9831C247.418 25.9768 247.415 25.9706 247.413 25.9645C247.41 25.9582 247.408 25.9519 247.403 25.9457L247.383 25.9208C247.333 25.8834 247.282 25.871 247.232 25.9084L244.921 27.1535L244.901 27.1658L244.861 27.1908C244.841 27.2031 244.831 27.2153 244.821 27.2274L244.82 27.2281C244.814 27.2281 244.812 27.2329 244.809 27.2394C244.807 27.2435 244.804 27.2483 244.8 27.2531C244.797 27.2574 244.794 27.2604 244.793 27.2627C244.792 27.2643 244.791 27.2657 244.791 27.2671C244.79 27.2698 244.79 27.2728 244.79 27.278C244.76 27.3279 244.76 27.4025 244.77 27.4648C244.8 27.577 244.84 27.6764 244.881 27.7761C244.901 27.826 244.918 27.8761 244.936 27.9262C244.954 27.9758 244.971 28.0254 244.991 28.075L245.001 28.0873C245.015 28.1223 245.03 28.1559 245.043 28.1884C245.068 28.2483 245.092 28.3048 245.112 28.3613C245.142 28.4486 245.192 28.548 245.242 28.6477C245.267 28.7091 245.296 28.7657 245.324 28.8206C245.334 28.8423 245.345 28.8636 245.356 28.8847C245.361 28.897 245.367 28.9094 245.373 28.9215C245.413 29.0089 245.464 29.1084 245.514 29.1831C245.547 29.2332 245.581 29.2945 245.615 29.3558V29.3559C245.631 29.3859 245.648 29.4159 245.665 29.4447C245.718 29.5389 245.775 29.6303 245.835 29.7185C245.876 29.7774 245.908 29.825 245.939 29.8729L245.986 29.9428C246.036 30.0174 246.096 30.1044 246.157 30.1791L246.338 30.4033L246.34 30.4062C246.38 30.4551 246.419 30.5038 246.458 30.5402C246.478 30.559 246.493 30.5777 246.507 30.5948C246.521 30.6119 246.534 30.6274 246.549 30.6399C246.574 30.671 246.601 30.699 246.629 30.727V30.7271C246.657 30.7551 246.684 30.7832 246.71 30.8142C246.742 30.8541 246.778 30.8887 246.815 30.9246L246.815 30.9249C246.837 30.9452 246.859 30.9661 246.88 30.9885L246.89 31.0012C246.911 31.0258 246.941 31.0508 246.971 31.0758C246.991 31.1005 247.021 31.1256 247.051 31.1505C247.062 31.1594 247.073 31.17 247.084 31.1811C247.104 31.2007 247.126 31.2216 247.152 31.2375C247.173 31.2557 247.196 31.2755 247.218 31.2958H247.218C247.257 31.3311 247.298 31.3678 247.343 31.3993C248.548 32.3582 249.945 32.8438 251.533 32.8438H252.015C252.096 32.8438 252.186 32.8313 252.266 32.8188L252.387 32.8066L252.487 32.794C252.518 32.7878 252.548 32.7847 252.578 32.7815C252.608 32.7784 252.638 32.7753 252.668 32.769L252.839 32.7442L252.94 32.7318L253.14 32.682C253.176 32.6758 253.208 32.6664 253.241 32.657C253.274 32.6477 253.306 32.6383 253.342 32.6321L253.392 32.6198C253.427 32.6072 253.46 32.5977 253.493 32.5882H253.493C253.526 32.579 253.558 32.5698 253.593 32.5575L253.703 32.5201L253.754 32.4952L253.814 32.4702L253.964 32.4079L253.969 32.406C254.088 32.3569 254.207 32.3078 254.326 32.2462L254.447 32.1839C254.799 31.9972 255.14 31.7854 255.462 31.5239L255.562 31.4369L255.565 31.435C255.614 31.3981 255.663 31.3613 255.703 31.3123C255.748 31.2685 255.796 31.2247 255.844 31.1809C255.892 31.1374 255.939 31.0941 255.984 31.0508L256.006 31.0294L256.006 31.0292C256.047 30.9896 256.081 30.9561 256.115 30.9138C256.155 30.8641 256.205 30.8142 256.246 30.7768L256.376 30.6275C256.396 30.6026 256.419 30.5777 256.442 30.5527C256.464 30.5278 256.487 30.5028 256.507 30.478L256.536 30.4422L256.627 30.3286C256.668 30.2788 256.708 30.229 256.738 30.1791C256.738 30.1667 256.748 30.1667 256.758 30.1543C256.838 30.0553 256.908 29.9443 256.978 29.8329L256.978 29.8328L256.979 29.8305C256.999 29.7993 257.017 29.7713 257.034 29.7432C257.052 29.7153 257.07 29.6873 257.09 29.6563C257.682 28.6726 258.095 27.5395 258.305 26.3442C258.311 26.3069 258.318 26.2727 258.326 26.2386L258.326 26.2383C258.333 26.2041 258.341 26.1699 258.346 26.1325C258.346 26.1201 258.348 26.1107 258.351 26.1013C258.353 26.092 258.356 26.0826 258.356 26.0702V26.0454C258.359 26.0241 258.361 26.0037 258.364 25.9839C258.366 25.9689 258.369 25.9543 258.371 25.9395C258.376 25.9053 258.381 25.871 258.386 25.8337C258.396 25.7839 258.406 25.734 258.406 25.6842C258.424 25.5937 258.434 25.493 258.444 25.4006L258.446 25.3729C258.476 25.1489 258.496 24.937 258.516 24.7006C258.522 24.6628 258.524 24.6282 258.527 24.5935C258.529 24.5597 258.532 24.5258 258.537 24.4889C258.557 24.1651 258.577 23.8414 258.587 23.4929V7.31846C258.587 7.10678 258.456 6.94492 258.285 6.94492H255.844C255.693 6.94492 255.562 7.11923 255.552 7.31846ZM178.785 16.3862C178.659 16.4504 178.524 16.4833 178.388 16.4828H174.938C174.802 16.4831 174.667 16.4503 174.541 16.3862C174.415 16.3219 174.3 16.2276 174.204 16.1086C174.108 15.9896 174.031 15.8482 173.979 15.6925C173.927 15.5369 173.901 15.3703 173.901 15.2018V12.6599C173.901 12.5298 173.869 12.3997 173.82 12.2896C173.658 11.9394 173.294 11.8192 173.002 12.0194L167.617 16.3027C167.547 16.3522 167.473 16.409 167.4 16.4657C167.058 16.7295 166.718 16.9923 166.718 16.5229V10.238C166.718 9.44736 167.066 8.71683 167.633 8.34653L178.509 1.0509C178.898 0.790792 179.425 1.18114 179.425 1.72153V15.2018C179.425 15.3703 179.398 15.5369 179.347 15.6926C179.295 15.8482 179.218 15.9896 179.122 16.1086C179.026 16.2278 178.911 16.322 178.785 16.3862ZM166.718 18.5553C166.718 17.8476 167.18 17.2797 167.755 17.2797H171.205C171.78 17.2797 172.241 17.8476 172.241 18.5553V21.0866C172.241 21.2161 172.274 21.3458 172.322 21.4554C172.484 21.8041 172.849 21.9236 173.14 21.7244L178.453 17.7679C178.858 17.479 179.416 17.2498 179.425 18.874V23.4884C179.421 23.8743 179.334 24.2522 179.173 24.5831C179.013 24.914 178.784 25.1863 178.509 25.3719L167.633 32.637C167.245 32.8961 166.718 32.5075 166.718 31.9693V18.5553ZM265.343 0.84375H262.923C262.762 0.84375 262.62 1.01807 262.62 1.21729V4.20561C262.62 4.41729 262.752 4.57916 262.923 4.57916H265.343C265.515 4.57916 265.646 4.41729 265.646 4.20561V1.21729C265.646 1.00562 265.515 0.84375 265.343 0.84375ZM228.295 15.6857V15.5485V15.3366C228.224 14.2019 227.87 13.1172 227.273 12.2443C227.243 12.1943 227.203 12.132 227.162 12.0822C226.434 11.0972 225.514 10.5734 224.381 10.5111C224.3 10.4987 224.209 10.4987 224.128 10.4987H224.067C223.825 10.4987 223.572 10.5237 223.329 10.5735H223.309C222.51 10.7605 221.792 11.2841 221.266 12.0573C220.538 13.0547 220.144 14.3516 220.144 15.6982C220.144 17.1694 220.508 18.4287 221.236 19.4886C221.762 20.2617 222.48 20.7853 223.279 20.9724H223.309C223.542 21.0348 223.774 21.0845 224.017 21.097H224.411C225.534 21.0348 226.424 20.461 227.142 19.4761C227.162 19.4511 227.18 19.4228 227.198 19.3946C227.215 19.3667 227.233 19.3388 227.253 19.3139C227.921 18.3166 228.275 17.1194 228.295 15.6857ZM231.056 6.8204C231.227 6.84531 231.359 7.01987 231.359 7.23192L231.349 15.9225V24.3763C231.349 24.5882 231.217 24.7503 231.046 24.7503H228.588C228.416 24.7503 228.285 24.5882 228.285 24.3763L228.295 22.3814C226.837 25.4007 223.403 24.7116 222.749 24.5802C222.709 24.5722 222.68 24.5662 222.662 24.5634C221.812 24.3262 220.993 23.9026 220.265 23.3164L220.204 23.2664C219.946 23.059 219.699 22.83 219.466 22.5807L219.446 22.5684C219.284 22.3938 219.132 22.2067 218.981 22.0072C217.757 20.3613 217.14 18.3041 217.14 15.8602C217.14 15.1866 217.191 14.5145 217.292 13.8527C217.514 12.2318 218.111 10.7356 219.011 9.53854C219.163 9.33907 219.314 9.15205 219.476 8.97747L219.496 8.96503C219.729 8.71563 219.982 8.49126 220.235 8.27921L220.295 8.2294C221.028 7.64673 221.84 7.23272 222.692 7.00743C222.709 7.00469 222.736 6.9992 222.772 6.99179C223.4 6.86441 226.823 6.17032 228.295 9.13959V7.19445C228.295 6.98252 228.426 6.8204 228.598 6.8204H231.056Z" fill="#655B6E"/>
</g>
<g clip-path="url(#clip2)">
<path fill-rule="evenodd" clip-rule="evenodd" d="M414.79 12.1238H417.696V12.1248V24.6586C417.696 27.2134 417.466 28.296 416.626 29.5345C415.555 31.1598 413.643 32.0105 411.503 32.0105C407.756 32.0105 405.386 29.6116 405.386 25.7432H408.215C408.291 26.8267 408.368 27.2905 408.673 27.8323C409.209 28.7609 410.356 29.3027 411.503 29.3027C413.643 29.3027 414.714 27.9872 414.714 25.2784V23.4991C413.567 24.8146 412.343 25.3563 410.738 25.3563C407.374 25.3563 404.851 22.5694 404.851 18.701C404.851 14.6767 407.374 11.8139 410.815 11.8139C412.344 11.8139 413.796 12.4327 414.79 13.5941V12.1238ZM414.867 18.4692C414.867 16.0702 413.49 14.367 411.35 14.367V14.3679C409.209 14.3679 407.832 16.0702 407.832 18.5462C407.832 21.0222 409.209 22.6474 411.35 22.6474C413.414 22.6474 414.867 20.9452 414.867 18.4692ZM361.269 24.9694V12.1238H364.175V13.2844C365.245 12.0459 365.933 11.7369 367.156 11.7369C368.533 11.7369 369.756 12.3557 370.52 13.5941C371.438 12.4327 372.738 11.7369 374.268 11.7369C377.096 11.7369 378.549 13.5163 378.549 16.9988V25.1234H375.643V18.0044C375.643 15.5285 375.108 14.5997 373.731 14.5997C372.051 14.5997 371.362 15.7604 371.362 18.4692V25.0464H368.457V17.9273C368.457 15.6063 367.845 14.5229 366.545 14.5229C364.863 14.5229 364.175 15.6834 364.175 18.3922V24.9694H361.269ZM389.482 13.5941V12.1238H392.388V24.8915H389.482V23.577C388.107 24.8146 387.112 25.2784 385.583 25.2784C382.066 25.2784 379.542 22.4156 379.542 18.3913C379.542 14.5998 382.066 11.7369 385.507 11.7369C387.112 11.7369 388.183 12.2787 389.482 13.5941ZM389.635 18.4692C389.635 16.0702 388.183 14.367 386.042 14.367V14.3679C384.054 14.3679 382.525 16.1472 382.525 18.4692C382.525 20.9452 383.978 22.6474 386.042 22.6474C388.183 22.6474 389.635 20.9452 389.635 18.4692ZM394.758 12.1238H397.664V24.9694H394.758V12.1238ZM395.474 5.07064C395.708 4.97394 395.958 4.92506 396.21 4.92685H396.211C396.463 4.92493 396.714 4.97372 396.947 5.07036C397.181 5.16701 397.392 5.30956 397.57 5.48968C397.749 5.6698 397.889 5.88386 397.984 6.11934C398.079 6.35481 398.126 6.60697 398.123 6.86105C398.126 7.11521 398.079 7.36748 397.984 7.60306C397.889 7.83865 397.749 8.05283 397.571 8.23305C397.393 8.41327 397.181 8.5559 396.947 8.65261C396.714 8.74931 396.464 8.79813 396.211 8.79621C395.959 8.79813 395.708 8.74931 395.475 8.65261C395.241 8.5559 395.029 8.41327 394.851 8.23305C394.673 8.05283 394.533 7.83865 394.438 7.60306C394.343 7.36748 394.296 7.11521 394.299 6.86105C394.296 6.60705 394.343 6.35497 394.438 6.11956C394.533 5.88415 394.673 5.67013 394.851 5.49002C395.029 5.30992 395.241 5.16734 395.474 5.07064ZM403.245 1.67719H400.34V24.8915H403.245V1.67719ZM419.455 12.1238H422.36V19.4748C422.36 21.6419 423.124 22.6474 424.807 22.6474C426.565 22.6474 427.329 21.6419 427.329 19.4748V12.1238H430.235V19.5527C430.235 21.5639 429.93 22.6474 428.935 23.7309C427.866 24.8145 426.489 25.3563 424.807 25.3563C423.201 25.3563 421.749 24.8145 420.754 23.7309C419.837 22.6474 419.455 21.5639 419.455 19.5527V12.1238ZM432.223 24.9694V12.1238H435.052V13.2844C436.198 12.1239 437.116 11.7369 438.493 11.7369C441.628 11.7369 443.08 13.5163 443.08 17.0758V24.9694H440.174V17.7724C440.174 15.2964 439.64 14.4448 437.804 14.4448C435.817 14.4448 435.128 15.6053 435.128 18.778V24.9694H432.223ZM341.876 16.6032C341.876 14.0521 343.949 12.0419 346.406 12.0419C348.862 12.0419 350.935 14.0521 350.935 16.6032C350.935 19.1533 348.862 21.1635 346.406 21.1635C345.809 21.169 345.218 21.0546 344.666 20.8274C344.114 20.6002 343.612 20.2645 343.19 19.84C342.769 19.4154 342.435 18.9104 342.21 18.3547C341.984 17.7989 341.87 17.2036 341.876 16.6032ZM346.329 9.49169C342.49 9.49169 339.343 12.6606 339.343 16.5252L339.342 16.5271C339.339 17.4517 339.517 18.3676 339.867 19.2223C340.217 20.0771 340.732 20.8537 341.381 21.5075C342.03 22.1612 342.802 22.6792 343.651 23.0315C344.5 23.3839 345.41 23.5638 346.328 23.5606C348.861 23.5606 351.088 22.247 352.317 20.2367C352.701 20.7775 353.391 21.3193 354.467 21.3193C357 21.3193 358.228 19.1541 358.228 16.5261C358.228 9.95552 352.931 4.54449 346.406 4.54449C339.802 4.54449 334.506 9.95457 334.506 16.5243C334.5 18.0991 334.804 19.6594 335.4 21.1155C335.996 22.5716 336.872 23.8947 337.978 25.0086C339.084 26.1224 340.398 27.0049 341.844 27.6054C343.291 28.206 344.84 28.5126 346.405 28.5077C349.86 28.5077 353.084 26.9613 355.157 24.4872L353.238 22.8638C351.549 24.7961 349.093 25.9557 346.329 25.9557C341.185 25.9557 336.963 21.7053 336.963 16.5252C336.963 11.3461 341.185 7.0946 346.329 7.0946C351.472 7.0946 355.695 11.3461 355.695 16.5252C355.695 17.067 355.542 18.5345 354.39 18.5345C353.699 18.5345 353.161 17.9936 353.238 17.2988C353.315 17.0669 353.315 16.7571 353.315 16.5252C353.315 12.6606 350.167 9.49169 346.329 9.49169ZM348.478 16.5252C348.478 15.3658 347.557 14.4382 346.405 14.438C346.405 14.438 346.405 14.438 346.406 14.438H346.405C346.405 14.438 346.405 14.438 346.405 14.438C345.254 14.4382 344.332 15.3658 344.332 16.5252C344.331 16.7996 344.384 17.0716 344.488 17.3253C344.592 17.5791 344.744 17.8095 344.937 18.0035C345.13 18.1976 345.359 18.3514 345.611 18.4559C345.863 18.5604 346.133 18.6135 346.406 18.6124C347.557 18.6124 348.478 17.6848 348.478 16.5252Z" fill="#655B6E"/>
</g>
<g clip-path="url(#clip3)">
<path fill-rule="evenodd" clip-rule="evenodd" d="M497.475 0.84375L494.161 3.71534V1.87028H487.534V9.45911L483.806 12.6899L485.026 14.701L497.475 3.94117L509.924 14.701L511.144 12.6899L497.475 0.84375ZM492.138 4.15486V5.46888L489.557 7.70557V4.15486H492.138ZM487.534 29.5848H507.002V13.6745H499.546V9.0555H492.919V13.6745H487.534V29.5848ZM498.718 27.0631V21.8863H497.889H492.919H489.601V27.0631H498.718ZM497.889 19.3202H494.576V11.1084H498.304V19.3202H497.889ZM489.601 19.3202H492.919V16.1965H489.601V19.3202ZM500.789 27.0631H504.935V16.1965H500.789V27.0631ZM530.109 7.06776V26.6255C530.109 26.8883 529.97 27.0638 529.76 27.0638H526.451C526.264 27.0638 526.124 26.9761 526.031 26.7717L520.299 13.8989V26.6255C520.299 26.8883 520.158 27.0638 519.948 27.0638H517.036C516.826 27.0638 516.686 26.8883 516.686 26.6255V7.06776C516.686 6.80498 516.826 6.62997 517.036 6.62997H520.322C520.508 6.62997 520.648 6.71721 520.741 6.92252L526.497 19.8242V7.06776C526.497 6.80498 526.637 6.62997 526.846 6.62997H529.76C529.97 6.62997 530.109 6.80498 530.109 7.06776ZM535.469 18.6273H540.176C539.944 16.9634 538.988 16.1756 537.87 16.1756C536.704 16.1756 535.726 16.9634 535.469 18.6273ZM542.437 21.4003H535.516C535.866 22.9476 536.891 23.7652 538.452 23.7652C539.198 23.7652 539.85 23.5604 540.666 22.9185C540.876 22.7439 541.016 22.7726 541.179 22.9769L542.39 24.4366C542.53 24.6408 542.53 24.8451 542.344 25.0786C541.79 25.7754 541.13 26.3281 540.402 26.7039C539.673 27.0799 538.891 27.2714 538.102 27.2675C534.514 27.2675 532.044 23.969 532.044 19.8533C532.044 15.7373 534.514 12.468 537.846 12.468C541.156 12.468 543.276 15.7373 543.276 19.5906C543.276 20.7875 543.16 21.4003 542.437 21.4003ZM548.24 12.76C548.45 12.76 548.589 12.9355 548.589 13.1978V26.6255C548.589 26.8883 548.45 27.0638 548.24 27.0638H545.443C545.234 27.0638 545.094 26.8883 545.094 26.6255V13.1978C545.094 12.9355 545.234 12.76 545.443 12.76H548.24ZM544.977 7.91459C544.977 6.60072 545.793 5.55013 546.841 5.55013C547.89 5.55013 548.706 6.60072 548.706 7.91459C548.706 9.1987 547.89 10.2498 546.842 10.2498C545.793 10.2498 544.977 9.1987 544.977 7.91459ZM556.349 16.4098C557.818 16.4098 558.913 18.0147 558.913 19.7663C558.913 21.5175 557.818 23.1522 556.35 23.1522C554.858 23.1522 553.763 21.6345 553.763 19.7663C553.763 17.9274 554.858 16.4098 556.349 16.4098ZM562.479 26.9475V13.198C562.479 12.9357 562.339 12.7602 562.129 12.7602H559.589C559.379 12.7602 559.263 12.9357 559.239 13.198L559.17 14.3369C558.354 13.198 557.259 12.4395 555.907 12.4395C552.737 12.4395 550.407 15.7667 550.407 19.7956C550.407 23.8239 552.737 27.1518 555.907 27.1518C557.352 27.1518 558.471 26.3635 559.263 25.225V26.5677C559.263 28.7571 557.329 29.2828 556.117 29.2828C554.765 29.2828 553.67 28.9614 552.598 28.1731C552.388 28.0274 552.272 28.1151 552.132 28.3486L551.223 30.3918C551.13 30.6253 551.153 30.8296 551.316 30.9758C552.528 32.085 554.392 32.844 556.396 32.844C559.007 32.844 562.479 31.5306 562.479 26.9475ZM575.925 18.598V26.6254C575.925 26.8882 575.785 27.0637 575.575 27.0637H572.779C572.569 27.0637 572.429 26.8882 572.429 26.6254V19.474C572.429 17.1681 571.404 16.4973 570.472 16.4973C568.91 16.4973 568.258 18.4234 568.258 19.124V26.6259C568.258 26.8887 568.118 27.0642 567.909 27.0642H565.112C564.902 27.0642 564.762 26.8887 564.762 26.6259V6.19207C564.762 5.92929 564.902 5.75429 565.112 5.75429H567.909C568.118 5.75429 568.258 5.92929 568.258 6.19207V15.0078C568.98 13.5189 570.145 12.4386 571.777 12.4386C574.084 12.4386 575.925 14.7743 575.925 18.598ZM586.738 19.9118C586.738 17.8686 585.643 16.467 584.151 16.467C582.614 16.467 581.588 17.9852 581.588 19.9118C581.588 21.8673 582.614 23.2684 584.151 23.2684C585.642 23.2684 586.738 21.8969 586.738 19.9118ZM590.093 19.9411C590.093 24.0274 587.763 27.268 584.57 27.268C583.079 27.268 582.031 26.5084 581.308 25.3998L581.168 26.6259C581.145 26.8882 581.028 27.0637 580.819 27.0637H578.442C578.232 27.0637 578.092 26.8882 578.092 26.6259V6.19155C578.092 5.92878 578.232 5.75325 578.442 5.75325H581.238C581.448 5.75325 581.588 5.92878 581.588 6.19155V14.0728C582.31 13.1094 583.312 12.4679 584.57 12.4679C587.763 12.4679 590.093 15.7665 590.093 19.9411ZM599.859 19.9118C599.859 17.9266 598.717 16.4962 597.272 16.4962C595.851 16.4962 594.684 17.9266 594.684 19.9118C594.684 21.8673 595.851 23.2975 597.272 23.2975C598.717 23.2975 599.859 21.8677 599.859 19.9118ZM591.329 19.9118C591.329 15.7377 593.986 12.4391 597.272 12.4391C600.581 12.4391 603.238 15.7377 603.238 19.9118C603.238 24.0572 600.581 27.3551 597.272 27.3551C593.986 27.3551 591.329 24.0572 591.329 19.9118ZM612.279 16.3221L613.048 13.8114C613.119 13.6072 613.119 13.3736 612.932 13.1694C612.606 12.7896 612.023 12.4395 611.347 12.4395C609.949 12.4395 608.993 13.4609 608.411 14.8625L608.318 13.1986C608.294 12.9358 608.178 12.7603 607.968 12.7603H605.288C605.079 12.7603 604.939 12.9358 604.939 13.1986V26.6263C604.939 26.889 605.079 27.0641 605.288 27.0641H608.084C608.294 27.0641 608.434 26.889 608.434 26.6263V19.5037C608.434 17.7521 609.296 16.4094 610.742 16.4094C611.113 16.4094 611.369 16.5124 611.581 16.5972C611.621 16.6133 611.659 16.6289 611.697 16.6429C611.977 16.7306 612.187 16.6722 612.279 16.3221Z" fill="#655B6E"/>
</g>
<g clip-path="url(#clip4)">
<path fill-rule="evenodd" clip-rule="evenodd" d="M710.271 10.1633V11.0072H713.187C713.296 11.0091 713.385 11.139 713.386 11.2997V15.4062C713.385 15.5665 713.296 15.6955 713.187 15.6955H710.467C710.358 15.6974 710.27 15.8279 710.271 15.988V31.7166C710.271 31.8762 710.183 32.0058 710.074 32.0058H706.677C706.568 32.0058 706.48 31.8762 706.48 31.7166V15.9914C706.48 15.9138 706.459 15.8394 706.422 15.7845C706.385 15.7298 706.334 15.6989 706.282 15.6989H704.562C704.51 15.6999 704.459 15.6698 704.422 15.6154C704.384 15.5611 704.363 15.4871 704.363 15.4095V11.2997C704.363 11.1382 704.452 11.0072 704.562 11.0072H706.48V10.1633C706.48 4.27412 708.653 0.783438 713.196 1.10665C713.302 1.11559 713.385 1.2435 713.386 1.39925V6.16238C713.386 6.24275 713.363 6.31956 713.323 6.37443C713.284 6.42931 713.23 6.45724 713.176 6.45156C711.336 6.3393 710.271 7.32593 710.271 10.1633ZM681.362 25.0039L684.488 22.3127C684.539 22.2663 684.601 22.2554 684.657 22.283C684.713 22.3106 684.758 22.3741 684.779 22.4557C685.538 25.089 686.964 26.773 689.425 26.773C691.886 26.773 692.716 25.2591 692.716 23.5716C692.716 21.3227 691.329 20.4586 688.278 19.1487C685.136 17.8082 682.078 15.8621 682.078 10.109C682.078 4.3558 685.313 1.11004 688.838 1.11004C692.15 1.11004 694.701 3.56307 696.102 7.65594C696.147 7.79468 696.113 7.96199 696.023 8.04041L692.956 10.6465C692.909 10.6846 692.852 10.6927 692.801 10.669C692.749 10.6454 692.706 10.5918 692.681 10.5206C691.946 8.38063 690.832 6.90748 688.838 6.90748C687.132 6.90748 686.134 8.20713 686.134 9.93553C686.134 11.7965 686.927 12.7899 690.042 14.1745L690.053 14.1799C693.311 15.6924 696.769 17.2983 696.769 23.4763C696.769 29.141 693.686 32.6011 689.307 32.6011C685.177 32.6011 682.438 29.7195 681.285 25.3509C681.253 25.2232 681.285 25.0801 681.362 25.0039ZM660.402 14.4344C660.402 17.0696 658.928 19.2056 657.11 19.2056C655.292 19.2056 653.818 17.0696 653.818 14.4344C653.818 11.7993 655.292 9.6632 657.11 9.6632C658.928 9.6632 660.402 11.7993 660.402 14.4344ZM669.387 14.4344C669.387 17.0696 667.913 19.2056 666.095 19.2056C664.277 19.2056 662.803 17.0696 662.803 14.4344C662.803 11.7993 664.277 9.6632 666.095 9.6632C667.913 9.6632 669.387 11.7993 669.387 14.4344ZM675.067 19.2056C676.885 19.2056 678.359 17.0696 678.359 14.4344C678.359 11.7993 676.885 9.6632 675.067 9.6632C673.249 9.6632 671.775 11.7993 671.775 14.4344C671.775 17.0696 673.249 19.2056 675.067 19.2056ZM669.387 27.3496C669.387 29.9848 667.913 32.121 666.095 32.121C664.277 32.121 662.803 29.9848 662.803 27.3496C662.803 24.7146 664.277 22.5784 666.095 22.5784C667.913 22.5784 669.387 24.7146 669.387 27.3496ZM698.877 2.33486C698.89 2.31588 698.904 2.29878 698.919 2.28382C700.779 0.371771 702.781 2.43692 702.781 5.00563C702.758 6.89316 701.712 8.4063 700.43 8.40785C698.57 8.41465 697.16 5.07367 698.877 2.33486ZM698.745 11.0072H702.143C702.252 11.0091 702.339 11.1395 702.339 11.2997V31.7132C702.339 31.8728 702.251 32.0023 702.143 32.0023H698.745C698.693 32.0023 698.643 31.9719 698.606 31.9176C698.57 31.8634 698.549 31.7899 698.549 31.7132V11.2997C698.549 11.1447 698.631 11.0163 698.736 11.0072H698.745ZM721.274 15.9879C721.274 15.8277 721.361 15.6972 721.47 15.6954H724.396C724.504 15.6954 724.592 15.5659 724.592 15.406V11.2996C724.592 11.1394 724.505 11.009 724.396 11.0071H721.47C721.362 11.0071 721.274 10.8776 721.274 10.7178V5.15859C721.273 5.06398 721.241 4.97571 721.188 4.92167C721.136 4.86764 721.068 4.8545 721.008 4.88641L717.613 6.69981C717.535 6.74262 717.483 6.85265 717.484 6.97539V10.7178C717.482 10.8781 717.394 11.0071 717.285 11.0071H715.124C715.015 11.009 714.926 11.1388 714.925 11.2996V15.4095C714.926 15.5698 715.015 15.6987 715.124 15.6987H717.282C717.392 15.7005 717.48 15.8305 717.481 15.9914V24.7386C717.481 30.5121 719.235 32.8189 724.414 32.0363C724.515 32.019 724.592 31.8935 724.592 31.7438V27.2527C724.592 27.173 724.57 27.0967 724.531 27.042C724.491 26.9873 724.438 26.9589 724.384 26.9636C722.346 27.1199 721.274 27.001 721.274 24.7386V15.9879Z" fill="#655B6E"/>
</g>
<defs>
<clipPath id="clip0">
<rect width="106.286" height="32" fill="white" transform="translate(20.3632 0.84375)"/>
</clipPath>
<clipPath id="clip1">
<rect width="128.139" height="32" fill="white" transform="translate(166.382 0.84375)"/>
</clipPath>
<clipPath id="clip2">
<rect width="109.266" height="32" fill="white" transform="translate(334.254 0.84375)"/>
</clipPath>
<clipPath id="clip3">
<rect width="130.125" height="32" fill="white" transform="translate(483.252 0.84375)"/>
</clipPath>
<clipPath id="clip4">
<rect width="71.5193" height="32" fill="white" transform="translate(653.111 0.84375)"/>
</clipPath>
</defs>
</svg>
